<svg xmlns="http://www.w3.org/2000/svg" xmlns:xlink="http://www.w3.org/1999/xlink" width="288" zoomAndPan="magnify" viewBox="0 0 216 215.999996" height="288" preserveAspectRatio="xMidYMid meet" version="1.0"><defs><g/></defs><rect x="-21.6" width="259.2" fill="#ffffff" y="-21.6" height="259.199995" fill-opacity="1"/><rect x="-21.6" width="259.2" fill="#ffffff" y="-21.6" height="259.199995" fill-opacity="1"/><g fill="#004aad" fill-opacity="1"><g transform="translate(4.515694, 77.146752)"><g><path d="M 26.0625 -30.921875 C 26.0625 -31.390625 26.222656 -31.800781 26.546875 -32.15625 C 26.867188 -32.507812 27.269531 -32.6875 27.75 -32.6875 L 45.765625 -32.6875 C 46.242188 -32.6875 46.644531 -32.507812 46.96875 -32.15625 C 47.289062 -31.800781 47.453125 -31.390625 47.453125 -30.921875 L 47.453125 -18.640625 C 47.453125 -14.867188 46.773438 -11.523438 45.421875 -8.609375 C 44.066406 -5.691406 41.8125 -3.394531 38.65625 -1.71875 C 35.507812 -0.0390625 31.285156 0.796875 25.984375 0.796875 C 20.554688 0.796875 16.265625 -0.144531 13.109375 -2.03125 C 9.960938 -3.914062 7.726562 -6.34375 6.40625 -9.3125 C 5.082031 -12.289062 4.421875 -15.398438 4.421875 -18.640625 C 4.421875 -19.878906 4.445312 -21.054688 4.5 -22.171875 C 4.5625 -23.296875 4.632812 -24.535156 4.71875 -25.890625 C 4.8125 -27.242188 4.859375 -28.921875 4.859375 -30.921875 C 4.859375 -32.929688 4.8125 -34.613281 4.71875 -35.96875 C 4.632812 -37.320312 4.5625 -38.554688 4.5 -39.671875 C 4.445312 -40.796875 4.421875 -41.972656 4.421875 -43.203125 C 4.421875 -46.972656 5.113281 -50.316406 6.5 -53.234375 C 7.882812 -56.148438 10.132812 -58.445312 13.25 -60.125 C 16.375 -61.800781 20.617188 -62.640625 25.984375 -62.640625 C 30.984375 -62.640625 35.015625 -61.800781 38.078125 -60.125 C 41.140625 -58.445312 43.40625 -56.28125 44.875 -53.625 C 46.351562 -50.976562 47.210938 -48.15625 47.453125 -45.15625 C 47.453125 -44.625 47.289062 -44.164062 46.96875 -43.78125 C 46.644531 -43.394531 46.21875 -43.203125 45.6875 -43.203125 L 35.25 -43.203125 C 34.195312 -43.203125 33.609375 -43.765625 33.484375 -44.890625 C 33.429688 -45.890625 33.210938 -47.050781 32.828125 -48.375 C 32.441406 -49.695312 31.734375 -50.84375 30.703125 -51.8125 C 29.671875 -52.789062 28.15625 -53.28125 26.15625 -53.28125 C 23.800781 -53.28125 22.0625 -52.75 20.9375 -51.6875 C 19.820312 -50.625 19.113281 -49.3125 18.8125 -47.75 C 18.519531 -46.195312 18.375 -44.679688 18.375 -43.203125 L 18.375 -18.640625 C 18.375 -18.109375 18.414062 -17.296875 18.5 -16.203125 C 18.59375 -15.117188 18.859375 -13.988281 19.296875 -12.8125 C 19.742188 -11.632812 20.484375 -10.632812 21.515625 -9.8125 C 22.546875 -8.988281 23.972656 -8.578125 25.796875 -8.578125 C 28.097656 -8.578125 29.863281 -9.101562 31.09375 -10.15625 C 32.332031 -11.21875 33.15625 -12.53125 33.5625 -14.09375 C 33.976562 -15.65625 34.1875 -17.171875 34.1875 -18.640625 C 34.1875 -19.585938 34.1875 -20.585938 34.1875 -21.640625 C 34.132812 -22.117188 33.945312 -22.519531 33.625 -22.84375 C 33.300781 -23.164062 32.898438 -23.328125 32.421875 -23.328125 L 27.75 -23.328125 C 27.269531 -23.328125 26.867188 -23.488281 26.546875 -23.8125 C 26.222656 -24.132812 26.0625 -24.5625 26.0625 -25.09375 Z M 26.0625 -30.921875 "/></g></g></g><g fill="#000000" fill-opacity="1"><g transform="translate(56.492259, 77.146752)"><g><path d="M 18.203125 -1.765625 C 18.203125 -1.296875 18.039062 -0.882812 17.71875 -0.53125 C 17.394531 -0.175781 16.96875 0 16.4375 0 L 6.1875 0 C 5.65625 0 5.226562 -0.175781 4.90625 -0.53125 C 4.582031 -0.882812 4.421875 -1.296875 4.421875 -1.765625 C 4.472656 -3.710938 4.554688 -7.144531 4.671875 -12.0625 C 4.796875 -16.976562 4.859375 -23.265625 4.859375 -30.921875 C 4.859375 -38.640625 4.796875 -44.941406 4.671875 -49.828125 C 4.554688 -54.722656 4.472656 -58.140625 4.421875 -60.078125 C 4.421875 -60.554688 4.582031 -60.96875 4.90625 -61.3125 C 5.226562 -61.664062 5.65625 -61.84375 6.1875 -61.84375 L 16.4375 -61.84375 C 16.96875 -61.84375 17.394531 -61.664062 17.71875 -61.3125 C 18.039062 -60.96875 18.203125 -60.554688 18.203125 -60.078125 C 18.140625 -58.140625 18.050781 -54.722656 17.9375 -49.828125 C 17.820312 -44.941406 17.765625 -38.640625 17.765625 -30.921875 C 17.765625 -23.265625 17.820312 -16.976562 17.9375 -12.0625 C 18.050781 -7.144531 18.140625 -3.710938 18.203125 -1.765625 Z M 18.203125 -1.765625 "/></g></g></g><g fill="#004aad" fill-opacity="1"><g transform="translate(79.135792, 77.146752)"><g><path d="M 17.140625 -61.84375 C 17.671875 -61.84375 18.097656 -61.664062 18.421875 -61.3125 C 18.742188 -60.96875 18.90625 -60.554688 18.90625 -60.078125 L 18.640625 -48.6875 C 18.585938 -46.6875 18.207031 -44.832031 17.5 -43.125 C 16.789062 -41.414062 15.59375 -40.046875 13.90625 -39.015625 C 12.226562 -37.984375 9.921875 -37.46875 6.984375 -37.46875 L 6.1875 -37.46875 C 5.71875 -37.46875 5.304688 -37.628906 4.953125 -37.953125 C 4.597656 -38.273438 4.421875 -38.671875 4.421875 -39.140625 L 4.421875 -41.359375 C 4.421875 -41.828125 4.597656 -42.238281 4.953125 -42.59375 C 5.304688 -42.945312 5.71875 -43.125 6.1875 -43.125 L 6.984375 -43.125 C 7.566406 -43.125 8.238281 -43.210938 9 -43.390625 C 9.769531 -43.566406 10.460938 -43.960938 11.078125 -44.578125 C 11.703125 -45.191406 12.070312 -46.175781 12.1875 -47.53125 C 12.3125 -48.300781 11.988281 -48.6875 11.21875 -48.6875 L 6.453125 -48.6875 C 5.984375 -48.6875 5.570312 -48.863281 5.21875 -49.21875 C 4.863281 -49.570312 4.6875 -49.984375 4.6875 -50.453125 L 4.421875 -60.078125 C 4.421875 -60.554688 4.597656 -60.96875 4.953125 -61.3125 C 5.304688 -61.664062 5.71875 -61.84375 6.1875 -61.84375 Z M 17.140625 -61.84375 "/></g></g></g><g fill="#004aad" fill-opacity="1"><g transform="translate(102.551962, 77.146752)"><g><path d="M 33.3125 -30.921875 C 34.957031 -38.816406 36.25 -45.253906 37.1875 -50.234375 C 38.132812 -55.210938 38.785156 -58.613281 39.140625 -60.4375 C 39.253906 -61.375 39.816406 -61.84375 40.828125 -61.84375 L 51.15625 -61.84375 C 51.75 -61.84375 52.222656 -61.625 52.578125 -61.1875 C 52.929688 -60.75 53.019531 -60.265625 52.84375 -59.734375 C 52.363281 -57.671875 51.550781 -54.207031 50.40625 -49.34375 C 49.257812 -44.488281 47.921875 -38.347656 46.390625 -30.921875 C 44.679688 -22.972656 43.351562 -16.507812 42.40625 -11.53125 C 41.46875 -6.550781 40.851562 -3.175781 40.5625 -1.40625 C 40.382812 -0.46875 39.820312 0 38.875 0 L 18.03125 0 C 17.082031 0 16.519531 -0.46875 16.34375 -1.40625 C 16.050781 -3.175781 15.429688 -6.550781 14.484375 -11.53125 C 13.546875 -16.507812 12.222656 -22.972656 10.515625 -30.921875 C 8.921875 -38.347656 7.5625 -44.488281 6.4375 -49.34375 C 5.320312 -54.207031 4.53125 -57.671875 4.0625 -59.734375 C 3.882812 -60.265625 3.972656 -60.75 4.328125 -61.1875 C 4.679688 -61.625 5.15625 -61.84375 5.75 -61.84375 L 16.078125 -61.84375 C 17.023438 -61.84375 17.585938 -61.375 17.765625 -60.4375 C 18.117188 -58.613281 18.765625 -55.210938 19.703125 -50.234375 C 20.648438 -45.253906 21.945312 -38.816406 23.59375 -30.921875 C 24.414062 -27.097656 25.164062 -23.609375 25.84375 -20.453125 C 26.519531 -17.304688 27.15625 -14.523438 27.75 -12.109375 C 27.800781 -11.691406 28.019531 -11.484375 28.40625 -11.484375 C 28.789062 -11.484375 29.039062 -11.691406 29.15625 -12.109375 C 29.6875 -14.523438 30.304688 -17.304688 31.015625 -20.453125 C 31.722656 -23.609375 32.488281 -27.097656 33.3125 -30.921875 Z M 33.3125 -30.921875 "/></g></g></g><g fill="#004aad" fill-opacity="1"><g transform="translate(159.457663, 77.146752)"><g><path d="M 44.53125 -54.25 C 44.53125 -53.78125 44.367188 -53.367188 44.046875 -53.015625 C 43.722656 -52.660156 43.296875 -52.484375 42.765625 -52.484375 L 19.703125 -52.484375 C 19.234375 -52.484375 18.820312 -52.320312 18.46875 -52 C 18.113281 -51.675781 17.9375 -51.28125 17.9375 -50.8125 C 17.9375 -48.976562 17.921875 -46.941406 17.890625 -44.703125 C 17.859375 -42.472656 17.816406 -40.03125 17.765625 -37.375 C 17.765625 -36.90625 17.941406 -36.492188 18.296875 -36.140625 C 18.648438 -35.785156 19.0625 -35.609375 19.53125 -35.609375 L 38.171875 -35.609375 C 38.640625 -35.609375 39.050781 -35.429688 39.40625 -35.078125 C 39.757812 -34.722656 39.9375 -34.3125 39.9375 -33.84375 L 39.9375 -28.015625 C 39.9375 -27.535156 39.757812 -27.117188 39.40625 -26.765625 C 39.050781 -26.421875 38.640625 -26.25 38.171875 -26.25 L 19.53125 -26.25 C 19.0625 -26.25 18.648438 -26.070312 18.296875 -25.71875 C 17.941406 -25.363281 17.765625 -24.945312 17.765625 -24.46875 C 17.816406 -21.820312 17.859375 -19.378906 17.890625 -17.140625 C 17.921875 -14.898438 17.9375 -12.867188 17.9375 -11.046875 C 17.9375 -10.578125 18.113281 -10.175781 18.46875 -9.84375 C 18.820312 -9.519531 19.234375 -9.359375 19.703125 -9.359375 L 42.765625 -9.359375 C 43.296875 -9.359375 43.722656 -9.179688 44.046875 -8.828125 C 44.367188 -8.484375 44.53125 -8.070312 44.53125 -7.59375 L 44.53125 -1.765625 C 44.53125 -1.296875 44.367188 -0.882812 44.046875 -0.53125 C 43.722656 -0.175781 43.296875 0 42.765625 0 L 6.1875 0 C 5.65625 0 5.226562 -0.175781 4.90625 -0.53125 C 4.582031 -0.882812 4.421875 -1.296875 4.421875 -1.765625 C 4.472656 -3.710938 4.554688 -7.144531 4.671875 -12.0625 C 4.796875 -16.976562 4.859375 -23.265625 4.859375 -30.921875 C 4.859375 -38.640625 4.796875 -44.941406 4.671875 -49.828125 C 4.554688 -54.722656 4.472656 -58.140625 4.421875 -60.078125 C 4.421875 -60.554688 4.582031 -60.96875 4.90625 -61.3125 C 5.226562 -61.664062 5.65625 -61.84375 6.1875 -61.84375 L 42.765625 -61.84375 C 43.296875 -61.84375 43.722656 -61.664062 44.046875 -61.3125 C 44.367188 -60.96875 44.53125 -60.554688 44.53125 -60.078125 Z M 44.53125 -54.25 "/></g></g></g><g fill="#004aad" fill-opacity="1"><g transform="translate(7.426606, 141.002387)"><g><path d="M 36.359375 -28.671875 C 39.085938 -27.941406 41.203125 -26.6875 42.703125 -24.90625 C 44.210938 -23.125 44.96875 -20.445312 44.96875 -16.875 C 44.96875 -13.257812 44.421875 -10.347656 43.328125 -8.140625 C 42.242188 -5.941406 40.753906 -4.242188 38.859375 -3.046875 C 36.960938 -1.847656 34.789062 -1.039062 32.34375 -0.625 C 29.894531 -0.207031 27.304688 0 24.578125 0 L 5.84375 0 C 5.34375 0 4.9375 -0.164062 4.625 -0.5 C 4.320312 -0.832031 4.171875 -1.222656 4.171875 -1.671875 C 4.234375 -3.503906 4.316406 -6.75 4.421875 -11.40625 C 4.535156 -16.0625 4.59375 -22.007812 4.59375 -29.25 C 4.59375 -36.550781 4.535156 -42.515625 4.421875 -47.140625 C 4.316406 -51.765625 4.234375 -54.992188 4.171875 -56.828125 C 4.171875 -57.273438 4.320312 -57.664062 4.625 -58 C 4.9375 -58.332031 5.34375 -58.5 5.84375 -58.5 L 23.984375 -58.5 C 26.710938 -58.5 29.300781 -58.289062 31.75 -57.875 C 34.207031 -57.457031 36.382812 -56.648438 38.28125 -55.453125 C 40.175781 -54.253906 41.664062 -52.550781 42.75 -50.34375 C 43.832031 -48.144531 44.375 -45.238281 44.375 -41.625 C 44.375 -38.164062 43.675781 -35.546875 42.28125 -33.765625 C 40.894531 -31.984375 38.921875 -30.726562 36.359375 -30 C 36.023438 -29.894531 35.859375 -29.671875 35.859375 -29.328125 C 35.859375 -28.992188 36.023438 -28.773438 36.359375 -28.671875 Z M 24.15625 -49.640625 L 18.640625 -49.640625 C 18.191406 -49.640625 17.800781 -49.484375 17.46875 -49.171875 C 17.132812 -48.867188 16.96875 -48.5 16.96875 -48.0625 C 16.96875 -46.332031 16.953125 -44.40625 16.921875 -42.28125 C 16.890625 -40.164062 16.847656 -37.859375 16.796875 -35.359375 C 16.796875 -34.910156 16.960938 -34.519531 17.296875 -34.1875 C 17.628906 -33.851562 18.019531 -33.6875 18.46875 -33.6875 L 24.15625 -33.6875 C 25.988281 -33.6875 27.421875 -34.085938 28.453125 -34.890625 C 29.484375 -35.703125 30.191406 -36.71875 30.578125 -37.9375 C 30.972656 -39.164062 31.171875 -40.421875 31.171875 -41.703125 C 31.171875 -43.929688 30.765625 -45.613281 29.953125 -46.75 C 29.148438 -47.894531 28.203125 -48.660156 27.109375 -49.046875 C 26.023438 -49.441406 25.039062 -49.640625 24.15625 -49.640625 Z M 24.734375 -8.859375 C 25.578125 -8.859375 26.550781 -9.050781 27.65625 -9.4375 C 28.769531 -9.832031 29.734375 -10.597656 30.546875 -11.734375 C 31.359375 -12.878906 31.765625 -14.59375 31.765625 -16.875 C 31.765625 -18.101562 31.566406 -19.332031 31.171875 -20.5625 C 30.785156 -21.789062 30.078125 -22.804688 29.046875 -23.609375 C 28.015625 -24.421875 26.578125 -24.828125 24.734375 -24.828125 L 18.46875 -24.828125 C 18.019531 -24.828125 17.628906 -24.65625 17.296875 -24.3125 C 16.960938 -23.976562 16.796875 -23.59375 16.796875 -23.15625 C 16.847656 -20.644531 16.890625 -18.328125 16.921875 -16.203125 C 16.953125 -14.085938 16.96875 -12.171875 16.96875 -10.453125 C 16.96875 -10.003906 17.132812 -9.625 17.46875 -9.3125 C 17.800781 -9.007812 18.191406 -8.859375 18.640625 -8.859375 Z M 24.734375 -8.859375 "/></g></g></g><g fill="#004aad" fill-opacity="1"><g transform="translate(56.569612, 141.002387)"><g><path d="M 40.03125 0 C 39.082031 0 38.523438 -0.445312 38.359375 -1.34375 C 38.242188 -2.113281 38.046875 -3.222656 37.765625 -4.671875 C 37.492188 -6.128906 37.164062 -7.914062 36.78125 -10.03125 C 36.613281 -10.914062 36.082031 -11.359375 35.1875 -11.359375 L 20.0625 -11.359375 C 19.164062 -11.359375 18.609375 -10.914062 18.390625 -10.03125 C 17.992188 -7.914062 17.671875 -6.128906 17.421875 -4.671875 C 17.171875 -3.222656 16.960938 -2.113281 16.796875 -1.34375 C 16.679688 -0.445312 16.15625 0 15.21875 0 L 5.4375 0 C 4.875 0 4.425781 -0.207031 4.09375 -0.625 C 3.757812 -1.039062 3.675781 -1.5 3.84375 -2 C 4.289062 -3.957031 5.039062 -7.234375 6.09375 -11.828125 C 7.15625 -16.421875 8.441406 -22.226562 9.953125 -29.25 C 11.566406 -36.769531 12.816406 -42.882812 13.703125 -47.59375 C 14.597656 -52.300781 15.1875 -55.492188 15.46875 -57.171875 C 15.632812 -58.054688 16.160156 -58.5 17.046875 -58.5 L 38.109375 -58.5 C 39.054688 -58.5 39.613281 -58.054688 39.78125 -57.171875 C 40.0625 -55.492188 40.644531 -52.300781 41.53125 -47.59375 C 42.425781 -42.882812 43.65625 -36.769531 45.21875 -29.25 C 46.71875 -22.226562 47.992188 -16.421875 49.046875 -11.828125 C 50.109375 -7.234375 50.894531 -3.957031 51.40625 -2 C 51.507812 -1.5 51.394531 -1.039062 51.0625 -0.625 C 50.726562 -0.207031 50.3125 0 49.8125 0 Z M 22.484375 -20.21875 L 32.765625 -20.21875 C 33.265625 -20.21875 33.679688 -20.410156 34.015625 -20.796875 C 34.347656 -21.191406 34.457031 -21.640625 34.34375 -22.140625 C 34.125 -23.253906 33.890625 -24.410156 33.640625 -25.609375 C 33.390625 -26.804688 33.125 -28.019531 32.84375 -29.25 C 32.007812 -33.207031 31.242188 -36.785156 30.546875 -39.984375 C 29.847656 -43.191406 29.222656 -45.96875 28.671875 -48.3125 C 28.554688 -48.863281 28.207031 -49.140625 27.625 -49.140625 C 27.039062 -49.140625 26.664062 -48.863281 26.5 -48.3125 C 25.988281 -45.96875 25.367188 -43.191406 24.640625 -39.984375 C 23.921875 -36.785156 23.144531 -33.207031 22.3125 -29.25 C 22.03125 -28.019531 21.765625 -26.804688 21.515625 -25.609375 C 21.265625 -24.410156 21.03125 -23.253906 20.8125 -22.140625 C 20.695312 -21.640625 20.804688 -21.191406 21.140625 -20.796875 C 21.472656 -20.410156 21.921875 -20.21875 22.484375 -20.21875 Z M 22.484375 -20.21875 "/></g></g></g><g fill="#004aad" fill-opacity="1"><g transform="translate(111.813708, 141.002387)"><g><path d="M 24.40625 -8.109375 C 26.351562 -8.109375 27.882812 -8.507812 29 -9.3125 C 30.113281 -10.125 30.90625 -11.128906 31.375 -12.328125 C 31.851562 -13.523438 32.148438 -14.765625 32.265625 -16.046875 C 32.367188 -17.109375 32.925781 -17.640625 33.9375 -17.640625 L 43.203125 -17.640625 C 43.710938 -17.640625 44.117188 -17.457031 44.421875 -17.09375 C 44.722656 -16.726562 44.875 -16.320312 44.875 -15.875 C 44.65625 -12.644531 43.847656 -9.773438 42.453125 -7.265625 C 41.066406 -4.765625 38.921875 -2.800781 36.015625 -1.375 C 33.117188 0.0390625 29.304688 0.75 24.578125 0.75 C 19.441406 0.75 15.382812 -0.140625 12.40625 -1.921875 C 9.425781 -3.703125 7.304688 -6 6.046875 -8.8125 C 4.796875 -11.625 4.171875 -14.566406 4.171875 -17.640625 C 4.171875 -18.804688 4.195312 -19.914062 4.25 -20.96875 C 4.3125 -22.03125 4.382812 -23.203125 4.46875 -24.484375 C 4.550781 -25.765625 4.59375 -27.351562 4.59375 -29.25 C 4.59375 -31.144531 4.550781 -32.734375 4.46875 -34.015625 C 4.382812 -35.296875 4.3125 -36.460938 4.25 -37.515625 C 4.195312 -38.578125 4.171875 -39.695312 4.171875 -40.875 C 4.171875 -44.4375 4.828125 -47.597656 6.140625 -50.359375 C 7.453125 -53.117188 9.582031 -55.289062 12.53125 -56.875 C 15.488281 -58.457031 19.503906 -59.25 24.578125 -59.25 C 29.304688 -59.25 33.117188 -58.457031 36.015625 -56.875 C 38.921875 -55.289062 41.066406 -53.242188 42.453125 -50.734375 C 43.847656 -48.222656 44.65625 -45.546875 44.875 -42.703125 C 44.875 -42.203125 44.722656 -41.769531 44.421875 -41.40625 C 44.117188 -41.050781 43.710938 -40.875 43.203125 -40.875 L 33.34375 -40.875 C 32.34375 -40.875 31.785156 -41.398438 31.671875 -42.453125 C 31.617188 -43.398438 31.410156 -44.5 31.046875 -45.75 C 30.679688 -47.007812 30.007812 -48.097656 29.03125 -49.015625 C 28.0625 -49.929688 26.628906 -50.390625 24.734375 -50.390625 C 22.503906 -50.390625 20.859375 -49.890625 19.796875 -48.890625 C 18.742188 -47.890625 18.078125 -46.648438 17.796875 -45.171875 C 17.523438 -43.691406 17.390625 -42.257812 17.390625 -40.875 L 17.390625 -17.640625 C 17.390625 -17.128906 17.429688 -16.359375 17.515625 -15.328125 C 17.597656 -14.304688 17.847656 -13.238281 18.265625 -12.125 C 18.679688 -11.007812 19.375 -10.0625 20.34375 -9.28125 C 21.320312 -8.5 22.675781 -8.109375 24.40625 -8.109375 Z M 24.40625 -8.109375 "/></g></g></g><g fill="#004aad" fill-opacity="1"><g transform="translate(160.873129, 141.002387)"><g><path d="M 33.34375 0 C 32.675781 0 32.203125 -0.304688 31.921875 -0.921875 L 18.140625 -27.328125 C 17.972656 -27.660156 17.707031 -27.785156 17.34375 -27.703125 C 16.976562 -27.617188 16.796875 -27.382812 16.796875 -27 C 16.796875 -20.363281 16.851562 -14.914062 16.96875 -10.65625 C 17.082031 -6.394531 17.164062 -3.398438 17.21875 -1.671875 C 17.21875 -1.222656 17.0625 -0.832031 16.75 -0.5 C 16.445312 -0.164062 16.046875 0 15.546875 0 L 5.84375 0 C 5.34375 0 4.9375 -0.164062 4.625 -0.5 C 4.320312 -0.832031 4.171875 -1.222656 4.171875 -1.671875 C 4.234375 -3.503906 4.316406 -6.75 4.421875 -11.40625 C 4.535156 -16.0625 4.59375 -22.007812 4.59375 -29.25 C 4.59375 -36.550781 4.535156 -42.515625 4.421875 -47.140625 C 4.316406 -51.765625 4.234375 -54.992188 4.171875 -56.828125 C 4.171875 -57.273438 4.320312 -57.664062 4.625 -58 C 4.9375 -58.332031 5.34375 -58.5 5.84375 -58.5 L 15.546875 -58.5 C 16.046875 -58.5 16.445312 -58.332031 16.75 -58 C 17.0625 -57.664062 17.21875 -57.273438 17.21875 -56.828125 C 17.164062 -55.160156 17.09375 -52.390625 17 -48.515625 C 16.914062 -44.640625 16.847656 -39.722656 16.796875 -33.765625 C 16.796875 -33.429688 16.976562 -33.207031 17.34375 -33.09375 C 17.707031 -32.988281 17.972656 -33.101562 18.140625 -33.4375 L 30.75 -57.578125 C 31.03125 -58.191406 31.503906 -58.5 32.171875 -58.5 L 43.96875 -58.5 C 44.632812 -58.5 45.117188 -58.207031 45.421875 -57.625 C 45.734375 -57.039062 45.691406 -56.46875 45.296875 -55.90625 C 43.847656 -53.957031 41.8125 -50.945312 39.1875 -46.875 C 36.570312 -42.8125 33.675781 -37.742188 30.5 -31.671875 C 30 -30.785156 29.972656 -29.921875 30.421875 -29.078125 C 33.929688 -22.398438 37.117188 -16.832031 39.984375 -12.375 C 42.859375 -7.914062 45.019531 -4.65625 46.46875 -2.59375 C 46.851562 -2.03125 46.894531 -1.457031 46.59375 -0.875 C 46.289062 -0.289062 45.800781 0 45.125 0 Z M 33.34375 0 "/></g></g></g><g fill="#000000" fill-opacity="1"><g transform="translate(8.37825, 183.218197)"><g><path d="M 21.96875 -31.765625 C 22.207031 -31.765625 22.414062 -31.671875 22.59375 -31.484375 C 22.78125 -31.304688 22.875 -31.097656 22.875 -30.859375 C 22.875 -29.859375 22.847656 -28.894531 22.796875 -27.96875 C 22.753906 -27.050781 22.722656 -26.007812 22.703125 -24.84375 C 22.691406 -23.675781 22.6875 -22.257812 22.6875 -20.59375 C 22.6875 -18.78125 22.703125 -17.257812 22.734375 -16.03125 C 22.765625 -14.8125 22.796875 -13.703125 22.828125 -12.703125 C 22.859375 -11.703125 22.875 -10.628906 22.875 -9.484375 C 22.875 -8.242188 22.707031 -7.03125 22.375 -5.84375 C 22.039062 -4.664062 21.476562 -3.597656 20.6875 -2.640625 C 19.90625 -1.691406 18.820312 -0.9375 17.4375 -0.375 C 16.0625 0.175781 14.332031 0.453125 12.25 0.453125 C 9.675781 0.453125 7.675781 0.078125 6.25 -0.671875 C 4.832031 -1.429688 3.828125 -2.492188 3.234375 -3.859375 C 2.648438 -5.222656 2.328125 -6.78125 2.265625 -8.53125 C 2.265625 -8.800781 2.347656 -9.023438 2.515625 -9.203125 C 2.679688 -9.390625 2.898438 -9.484375 3.171875 -9.484375 L 8.171875 -9.484375 C 8.410156 -9.484375 8.617188 -9.390625 8.796875 -9.203125 C 8.984375 -9.023438 9.078125 -8.816406 9.078125 -8.578125 C 9.078125 -7.910156 9.128906 -7.242188 9.234375 -6.578125 C 9.335938 -5.910156 9.625 -5.375 10.09375 -4.96875 C 10.5625 -4.5625 11.3125 -4.359375 12.34375 -4.359375 C 13.28125 -4.359375 13.988281 -4.566406 14.46875 -4.984375 C 14.957031 -5.410156 15.285156 -5.914062 15.453125 -6.5 C 15.617188 -7.09375 15.707031 -7.671875 15.71875 -8.234375 C 15.738281 -8.796875 15.75 -9.210938 15.75 -9.484375 L 15.75 -30.859375 C 15.75 -31.097656 15.832031 -31.304688 16 -31.484375 C 16.164062 -31.671875 16.367188 -31.765625 16.609375 -31.765625 Z M 21.96875 -31.765625 "/></g></g></g><g fill="#000000" fill-opacity="1"><g transform="translate(33.559209, 183.218197)"><g><path d="M 9.34375 -0.90625 C 9.34375 -0.664062 9.257812 -0.453125 9.09375 -0.265625 C 8.925781 -0.0859375 8.707031 0 8.4375 0 L 3.171875 0 C 2.898438 0 2.679688 -0.0859375 2.515625 -0.265625 C 2.347656 -0.453125 2.265625 -0.664062 2.265625 -0.90625 C 2.296875 -1.90625 2.34375 -3.664062 2.40625 -6.1875 C 2.46875 -8.71875 2.5 -11.945312 2.5 -15.875 C 2.5 -19.84375 2.46875 -23.082031 2.40625 -25.59375 C 2.34375 -28.101562 2.296875 -29.859375 2.265625 -30.859375 C 2.265625 -31.097656 2.347656 -31.304688 2.515625 -31.484375 C 2.679688 -31.671875 2.898438 -31.765625 3.171875 -31.765625 L 8.4375 -31.765625 C 8.707031 -31.765625 8.925781 -31.671875 9.09375 -31.484375 C 9.257812 -31.304688 9.34375 -31.097656 9.34375 -30.859375 C 9.3125 -29.859375 9.265625 -28.101562 9.203125 -25.59375 C 9.148438 -23.082031 9.125 -19.84375 9.125 -15.875 C 9.125 -11.945312 9.148438 -8.71875 9.203125 -6.1875 C 9.265625 -3.664062 9.3125 -1.90625 9.34375 -0.90625 Z M 9.34375 -0.90625 "/></g></g></g><g fill="#000000" fill-opacity="1"><g transform="translate(45.17421, 183.218197)"><g><path d="M 23.40625 -31.765625 C 23.6875 -31.765625 23.910156 -31.671875 24.078125 -31.484375 C 24.242188 -31.304688 24.328125 -31.097656 24.328125 -30.859375 C 24.296875 -30.066406 24.253906 -28.875 24.203125 -27.28125 C 24.160156 -25.695312 24.113281 -23.890625 24.0625 -21.859375 C 24.019531 -19.835938 23.984375 -17.742188 23.953125 -15.578125 C 23.921875 -13.421875 23.90625 -11.375 23.90625 -9.4375 C 23.90625 -7.53125 23.585938 -5.828125 22.953125 -4.328125 C 22.316406 -2.835938 21.226562 -1.660156 19.6875 -0.796875 C 18.144531 0.0664062 16.015625 0.5 13.296875 0.5 C 11.203125 0.5 9.472656 0.21875 8.109375 -0.34375 C 6.753906 -0.90625 5.675781 -1.660156 4.875 -2.609375 C 4.070312 -3.554688 3.503906 -4.617188 3.171875 -5.796875 C 2.835938 -6.984375 2.671875 -8.195312 2.671875 -9.4375 C 2.671875 -11.375 2.65625 -13.421875 2.625 -15.578125 C 2.601562 -17.742188 2.566406 -19.835938 2.515625 -21.859375 C 2.472656 -23.890625 2.425781 -25.695312 2.375 -27.28125 C 2.332031 -28.875 2.296875 -30.066406 2.265625 -30.859375 C 2.265625 -31.097656 2.347656 -31.304688 2.515625 -31.484375 C 2.679688 -31.671875 2.898438 -31.765625 3.171875 -31.765625 L 8.484375 -31.765625 C 8.722656 -31.765625 8.929688 -31.671875 9.109375 -31.484375 C 9.296875 -31.304688 9.390625 -31.097656 9.390625 -30.859375 L 9.390625 -9.4375 C 9.390625 -9.164062 9.410156 -8.75 9.453125 -8.1875 C 9.503906 -7.625 9.640625 -7.046875 9.859375 -6.453125 C 10.085938 -5.867188 10.46875 -5.363281 11 -4.9375 C 11.53125 -4.519531 12.265625 -4.3125 13.203125 -4.3125 C 14.410156 -4.3125 15.296875 -4.582031 15.859375 -5.125 C 16.421875 -5.664062 16.785156 -6.328125 16.953125 -7.109375 C 17.117188 -7.898438 17.203125 -8.675781 17.203125 -9.4375 L 17.203125 -30.859375 C 17.203125 -31.097656 17.289062 -31.304688 17.46875 -31.484375 C 17.644531 -31.671875 17.859375 -31.765625 18.109375 -31.765625 Z M 23.40625 -31.765625 "/></g></g></g><g fill="#000000" fill-opacity="1"><g transform="translate(71.807044, 183.218197)"><g><path d="M 12.390625 -18.15625 C 12.660156 -18.1875 12.894531 -18.109375 13.09375 -17.921875 C 13.289062 -17.742188 13.390625 -17.519531 13.390625 -17.25 L 13.390625 -14.390625 C 13.390625 -14.140625 13.289062 -13.921875 13.09375 -13.734375 C 12.894531 -13.554688 12.660156 -13.484375 12.390625 -13.515625 C 11.898438 -13.546875 11.253906 -13.578125 10.453125 -13.609375 C 9.648438 -13.640625 8.765625 -13.65625 7.796875 -13.65625 C 6.835938 -13.65625 5.957031 -13.640625 5.15625 -13.609375 C 4.351562 -13.578125 3.707031 -13.546875 3.21875 -13.515625 C 2.976562 -13.484375 2.757812 -13.554688 2.5625 -13.734375 C 2.363281 -13.921875 2.265625 -14.140625 2.265625 -14.390625 L 2.265625 -17.25 C 2.265625 -17.519531 2.363281 -17.742188 2.5625 -17.921875 C 2.757812 -18.109375 2.976562 -18.1875 3.21875 -18.15625 C 3.707031 -18.125 4.351562 -18.082031 5.15625 -18.03125 C 5.957031 -17.988281 6.835938 -17.96875 7.796875 -17.96875 C 8.765625 -17.96875 9.648438 -17.988281 10.453125 -18.03125 C 11.253906 -18.082031 11.898438 -18.125 12.390625 -18.15625 Z M 12.390625 -18.15625 "/></g></g></g><g fill="#000000" fill-opacity="1"><g transform="translate(87.460081, 183.218197)"><g><path d="M 21.96875 -31.765625 C 22.207031 -31.765625 22.414062 -31.671875 22.59375 -31.484375 C 22.78125 -31.304688 22.875 -31.097656 22.875 -30.859375 C 22.875 -29.859375 22.847656 -28.894531 22.796875 -27.96875 C 22.753906 -27.050781 22.722656 -26.007812 22.703125 -24.84375 C 22.691406 -23.675781 22.6875 -22.257812 22.6875 -20.59375 C 22.6875 -18.78125 22.703125 -17.257812 22.734375 -16.03125 C 22.765625 -14.8125 22.796875 -13.703125 22.828125 -12.703125 C 22.859375 -11.703125 22.875 -10.628906 22.875 -9.484375 C 22.875 -8.242188 22.707031 -7.03125 22.375 -5.84375 C 22.039062 -4.664062 21.476562 -3.597656 20.6875 -2.640625 C 19.90625 -1.691406 18.820312 -0.9375 17.4375 -0.375 C 16.0625 0.175781 14.332031 0.453125 12.25 0.453125 C 9.675781 0.453125 7.675781 0.078125 6.25 -0.671875 C 4.832031 -1.429688 3.828125 -2.492188 3.234375 -3.859375 C 2.648438 -5.222656 2.328125 -6.78125 2.265625 -8.53125 C 2.265625 -8.800781 2.347656 -9.023438 2.515625 -9.203125 C 2.679688 -9.390625 2.898438 -9.484375 3.171875 -9.484375 L 8.171875 -9.484375 C 8.410156 -9.484375 8.617188 -9.390625 8.796875 -9.203125 C 8.984375 -9.023438 9.078125 -8.816406 9.078125 -8.578125 C 9.078125 -7.910156 9.128906 -7.242188 9.234375 -6.578125 C 9.335938 -5.910156 9.625 -5.375 10.09375 -4.96875 C 10.5625 -4.5625 11.3125 -4.359375 12.34375 -4.359375 C 13.28125 -4.359375 13.988281 -4.566406 14.46875 -4.984375 C 14.957031 -5.410156 15.285156 -5.914062 15.453125 -6.5 C 15.617188 -7.09375 15.707031 -7.671875 15.71875 -8.234375 C 15.738281 -8.796875 15.75 -9.210938 15.75 -9.484375 L 15.75 -30.859375 C 15.75 -31.097656 15.832031 -31.304688 16 -31.484375 C 16.164062 -31.671875 16.367188 -31.765625 16.609375 -31.765625 Z M 21.96875 -31.765625 "/></g></g></g><g fill="#000000" fill-opacity="1"><g transform="translate(112.641041, 183.218197)"><g><path d="M 9.34375 -0.90625 C 9.34375 -0.664062 9.257812 -0.453125 9.09375 -0.265625 C 8.925781 -0.0859375 8.707031 0 8.4375 0 L 3.171875 0 C 2.898438 0 2.679688 -0.0859375 2.515625 -0.265625 C 2.347656 -0.453125 2.265625 -0.664062 2.265625 -0.90625 C 2.296875 -1.90625 2.34375 -3.664062 2.40625 -6.1875 C 2.46875 -8.71875 2.5 -11.945312 2.5 -15.875 C 2.5 -19.84375 2.46875 -23.082031 2.40625 -25.59375 C 2.34375 -28.101562 2.296875 -29.859375 2.265625 -30.859375 C 2.265625 -31.097656 2.347656 -31.304688 2.515625 -31.484375 C 2.679688 -31.671875 2.898438 -31.765625 3.171875 -31.765625 L 8.4375 -31.765625 C 8.707031 -31.765625 8.925781 -31.671875 9.09375 -31.484375 C 9.257812 -31.304688 9.34375 -31.097656 9.34375 -30.859375 C 9.3125 -29.859375 9.265625 -28.101562 9.203125 -25.59375 C 9.148438 -23.082031 9.125 -19.84375 9.125 -15.875 C 9.125 -11.945312 9.148438 -8.71875 9.203125 -6.1875 C 9.265625 -3.664062 9.3125 -1.90625 9.34375 -0.90625 Z M 9.34375 -0.90625 "/></g></g></g><g fill="#000000" fill-opacity="1"><g transform="translate(124.256041, 183.218197)"><g><path d="M 24.453125 -27.859375 C 24.453125 -27.617188 24.359375 -27.40625 24.171875 -27.21875 C 23.992188 -27.039062 23.785156 -26.953125 23.546875 -26.953125 L 17.65625 -26.953125 C 17.40625 -26.953125 17.195312 -26.867188 17.03125 -26.703125 C 16.863281 -26.535156 16.78125 -26.332031 16.78125 -26.09375 C 16.757812 -24.789062 16.738281 -23.289062 16.71875 -21.59375 C 16.707031 -19.90625 16.703125 -18 16.703125 -15.875 C 16.703125 -11.945312 16.722656 -8.71875 16.765625 -6.1875 C 16.804688 -3.664062 16.84375 -1.90625 16.875 -0.90625 C 16.90625 -0.664062 16.828125 -0.453125 16.640625 -0.265625 C 16.460938 -0.0859375 16.253906 0 16.015625 0 L 10.703125 0 C 10.460938 0 10.25 -0.0859375 10.0625 -0.265625 C 9.882812 -0.453125 9.796875 -0.664062 9.796875 -0.90625 C 9.859375 -1.90625 9.910156 -3.664062 9.953125 -6.1875 C 10.003906 -8.71875 10.03125 -11.945312 10.03125 -15.875 C 10.03125 -18 10.019531 -19.90625 10 -21.59375 C 9.988281 -23.289062 9.96875 -24.789062 9.9375 -26.09375 C 9.9375 -26.332031 9.851562 -26.535156 9.6875 -26.703125 C 9.519531 -26.867188 9.300781 -26.953125 9.03125 -26.953125 L 3.171875 -26.953125 C 2.929688 -26.953125 2.71875 -27.039062 2.53125 -27.21875 C 2.351562 -27.40625 2.265625 -27.617188 2.265625 -27.859375 L 2.265625 -30.859375 C 2.265625 -31.097656 2.351562 -31.304688 2.53125 -31.484375 C 2.71875 -31.671875 2.929688 -31.765625 3.171875 -31.765625 L 23.546875 -31.765625 C 23.785156 -31.765625 23.992188 -31.671875 24.171875 -31.484375 C 24.359375 -31.304688 24.453125 -31.097656 24.453125 -30.859375 Z M 24.453125 -27.859375 "/></g></g></g><g fill="#000000" fill-opacity="1"><g transform="translate(150.979623, 183.218197)"><g><path d="M 9.4375 -23 C 9.4375 -22.0625 9.796875 -21.3125 10.515625 -20.75 C 11.242188 -20.195312 12.191406 -19.710938 13.359375 -19.296875 C 14.523438 -18.890625 15.757812 -18.457031 17.0625 -18 C 18.363281 -17.550781 19.59375 -16.972656 20.75 -16.265625 C 21.914062 -15.554688 22.863281 -14.601562 23.59375 -13.40625 C 24.320312 -12.207031 24.6875 -10.65625 24.6875 -8.75 C 24.6875 -6.820312 24.335938 -5.164062 23.640625 -3.78125 C 22.941406 -2.40625 21.78125 -1.351562 20.15625 -0.625 C 18.539062 0.09375 16.375 0.453125 13.65625 0.453125 C 11.050781 0.453125 8.929688 0.03125 7.296875 -0.8125 C 5.671875 -1.664062 4.457031 -2.78125 3.65625 -4.15625 C 2.851562 -5.53125 2.390625 -6.988281 2.265625 -8.53125 C 2.234375 -8.769531 2.304688 -8.988281 2.484375 -9.1875 C 2.671875 -9.382812 2.898438 -9.484375 3.171875 -9.484375 L 8.53125 -9.484375 C 9.070312 -9.484375 9.359375 -9.210938 9.390625 -8.671875 C 9.453125 -8.117188 9.609375 -7.507812 9.859375 -6.84375 C 10.117188 -6.1875 10.546875 -5.609375 11.140625 -5.109375 C 11.734375 -4.609375 12.539062 -4.359375 13.5625 -4.359375 C 14.769531 -4.359375 15.65625 -4.5625 16.21875 -4.96875 C 16.78125 -5.375 17.144531 -5.914062 17.3125 -6.59375 C 17.476562 -7.28125 17.5625 -8 17.5625 -8.75 C 17.5625 -9.71875 17.191406 -10.488281 16.453125 -11.0625 C 15.710938 -11.644531 14.757812 -12.140625 13.59375 -12.546875 C 12.425781 -12.953125 11.191406 -13.378906 9.890625 -13.828125 C 8.585938 -14.285156 7.359375 -14.867188 6.203125 -15.578125 C 5.054688 -16.296875 4.113281 -17.242188 3.375 -18.421875 C 2.632812 -19.597656 2.265625 -21.125 2.265625 -23 C 2.265625 -24.9375 2.617188 -26.59375 3.328125 -27.96875 C 4.046875 -29.34375 5.207031 -30.394531 6.8125 -31.125 C 8.414062 -31.851562 10.59375 -32.21875 13.34375 -32.21875 C 15.914062 -32.21875 17.988281 -31.789062 19.5625 -30.9375 C 21.132812 -30.09375 22.296875 -28.984375 23.046875 -27.609375 C 23.804688 -26.234375 24.242188 -24.773438 24.359375 -23.234375 C 24.359375 -22.992188 24.273438 -22.773438 24.109375 -22.578125 C 23.953125 -22.378906 23.734375 -22.28125 23.453125 -22.28125 L 18.109375 -22.28125 C 17.554688 -22.28125 17.253906 -22.550781 17.203125 -23.09375 C 17.171875 -23.632812 17.054688 -24.238281 16.859375 -24.90625 C 16.660156 -25.570312 16.296875 -26.15625 15.765625 -26.65625 C 15.234375 -27.15625 14.457031 -27.40625 13.4375 -27.40625 C 12.21875 -27.40625 11.320312 -27.203125 10.75 -26.796875 C 10.175781 -26.390625 9.8125 -25.84375 9.65625 -25.15625 C 9.507812 -24.476562 9.4375 -23.757812 9.4375 -23 Z M 9.4375 -23 "/></g></g></g><g fill="#000000" fill-opacity="1"><g transform="translate(177.975419, 183.218197)"><g><path d="M 23.40625 -31.765625 C 23.6875 -31.765625 23.910156 -31.671875 24.078125 -31.484375 C 24.242188 -31.304688 24.328125 -31.097656 24.328125 -30.859375 C 24.296875 -30.066406 24.253906 -28.875 24.203125 -27.28125 C 24.160156 -25.695312 24.113281 -23.890625 24.0625 -21.859375 C 24.019531 -19.835938 23.984375 -17.742188 23.953125 -15.578125 C 23.921875 -13.421875 23.90625 -11.375 23.90625 -9.4375 C 23.90625 -7.53125 23.585938 -5.828125 22.953125 -4.328125 C 22.316406 -2.835938 21.226562 -1.660156 19.6875 -0.796875 C 18.144531 0.0664062 16.015625 0.5 13.296875 0.5 C 11.203125 0.5 9.472656 0.21875 8.109375 -0.34375 C 6.753906 -0.90625 5.675781 -1.660156 4.875 -2.609375 C 4.070312 -3.554688 3.503906 -4.617188 3.171875 -5.796875 C 2.835938 -6.984375 2.671875 -8.195312 2.671875 -9.4375 C 2.671875 -11.375 2.65625 -13.421875 2.625 -15.578125 C 2.601562 -17.742188 2.566406 -19.835938 2.515625 -21.859375 C 2.472656 -23.890625 2.425781 -25.695312 2.375 -27.28125 C 2.332031 -28.875 2.296875 -30.066406 2.265625 -30.859375 C 2.265625 -31.097656 2.347656 -31.304688 2.515625 -31.484375 C 2.679688 -31.671875 2.898438 -31.765625 3.171875 -31.765625 L 8.484375 -31.765625 C 8.722656 -31.765625 8.929688 -31.671875 9.109375 -31.484375 C 9.296875 -31.304688 9.390625 -31.097656 9.390625 -30.859375 L 9.390625 -9.4375 C 9.390625 -9.164062 9.410156 -8.75 9.453125 -8.1875 C 9.503906 -7.625 9.640625 -7.046875 9.859375 -6.453125 C 10.085938 -5.867188 10.46875 -5.363281 11 -4.9375 C 11.53125 -4.519531 12.265625 -4.3125 13.203125 -4.3125 C 14.410156 -4.3125 15.296875 -4.582031 15.859375 -5.125 C 16.421875 -5.664062 16.785156 -6.328125 16.953125 -7.109375 C 17.117188 -7.898438 17.203125 -8.675781 17.203125 -9.4375 L 17.203125 -30.859375 C 17.203125 -31.097656 17.289062 -31.304688 17.46875 -31.484375 C 17.644531 -31.671875 17.859375 -31.765625 18.109375 -31.765625 Z M 23.40625 -31.765625 "/></g></g></g><path stroke-linecap="butt" transform="matrix(0.75, 0.000000000000001769, -0.000000000000001769, 0.75, 60.902269, 18.510977)" fill="none" stroke-linejoin="miter" d="M 0.0000999043 8.00099 L 18.078226 8.00099 " stroke="#ff3131" stroke-width="16" stroke-opacity="1" stroke-miterlimit="4"/></svg>